PathFileType	4	(X/Y/Z)	./resultDataOpenSim/trcMotMarkerGrf/sub09/qtm-05-06.trc
DataRate	CameraRate	NumFrames	NumMarkers	Units	OrigDataRate	OrigDataStartFrame	OrigNumFrames
250.000000	250.000000	14	24	m	250.000000	319	509
Frame#	Time	L.Toe.Tip			R.Toe.Tip			L.Ankle.Lat			R.Ankle.Lat			L.Ankle.Med			R.Ankle.Med			L.Heel			R.Heel			L.Knee.Lat			R.Knee.Lat			L.Knee.Med			R.Knee.Med			L.Thigh.Upper			R.Thigh.Upper			L.ASIS			R.ASIS			V.Sacral			L.Acromium			R.Acromium			C7			L.Elbow			R.Elbow			L.Wrist.Lat			R.Wrist.Lat
		X1	Y1	Z1	X2	Y2	Z2	X3	Y3	Z3	X4	Y4	Z4	X5	Y5	Z5	X6	Y6	Z6	X7	Y7	Z7	X8	Y8	Z8	X9	Y9	Z9	X10	Y10	Z10	X11	Y11	Z11	X12	Y12	Z12	X13	Y13	Z13	X14	Y14	Z14	X15	Y15	Z15	X16	Y16	Z16	X17	Y17	Z17	X18	Y18	Z18	X19	Y19	Z19	X20	Y20	Z20	X21	Y21	Z21	X22	Y22	Z22	X23	Y23	Z23	X24	Y24	Z24

319	1.272	0.16087992	-0.054636496	-0.00026475294	1.0415977	0.042827159	0.10925712	0.087489921	0.078030781	-0.071129041	0.8928921	0.052754149	0.1401442	0.12132059	0.078289831	0.020710053	0.90775351	0.096060081	0.050812978	0.02063758	0.10080467	-0.02390062	0.82608494	0.031417449	0.088780407	0.36824117	0.39715027	-0.098157374	0.86007388	0.50528665	0.20115018	0.37916239	0.37867014	0.025973453	0.85099377	0.49304077	0.076574844	0.5221724	0.77796264	-0.1069464	0.58906765	0.79989363	0.26338585	0.63801299	0.84361069	-0.061217534	0.65795712	0.87092852	0.17625457	0.4851254	0.92627063	0.068654108	0.69196154	1.3056604	-0.093818544	0.65496172	1.3190727	0.23365764	0.60704318	1.3665633	0.06346418	0.55712481	0.9526667	-0.17168555	0.47478755	1.0049681	0.31281841	0.78649149	0.80811633	-0.13739633	0.57757802	0.7530976	0.36063486
320	1.276	0.16232473	-0.053223105	-0.00092937869	1.0421052	0.042351483	0.1087822	0.092358233	0.081870047	-0.071923158	0.89333269	0.052818006	0.13992131	0.12682782	0.08131089	0.019678341	0.90814687	0.095730546	0.050447307	0.026624911	0.10636369	-0.024200479	0.82632625	0.031498511	0.088775354	0.37803479	0.39656484	-0.099348206	0.86547309	0.50472857	0.20149589	0.38916344	0.37724852	0.024605793	0.85675786	0.4931296	0.076727955	0.52946483	0.77806332	-0.106238	0.59585468	0.8012769	0.26408608	0.64508467	0.84409068	-0.060019231	0.66466268	0.87213337	0.17688318	0.49209591	0.92716793	0.068982613	0.69905995	1.3064444	-0.093064697	0.66161764	1.3197927	0.23424658	0.6137185	1.3672761	0.064038933	0.56314565	0.95411922	-0.17117583	0.48189765	1.0052432	0.31314377	0.79107347	0.8072683	-0.13711709	0.58568346	0.75363643	0.36086403
321	1.28	0.16388961	-0.051596914	-0.0016431848	1.0425859	0.041950502	0.10861743	0.097465829	0.086015715	-0.072533675	0.89365303	0.052844291	0.139709	0.13251756	0.084515747	0.018865897	0.90854485	0.095485664	0.050152224	0.032900381	0.11218152	-0.024339252	0.82657094	0.031567204	0.088709825	0.38815169	0.39588312	-0.10054165	0.87081789	0.50417505	0.20184358	0.39943514	0.37581623	0.023238727	0.86250831	0.49313602	0.076854175	0.53670554	0.77823854	-0.10552446	0.60252497	0.80254781	0.26480483	0.65211972	0.84469849	-0.058753584	0.67123745	0.87325941	0.17758076	0.49915148	0.9280503	0.069535481	0.7060752	1.3072689	-0.092329065	0.66821689	1.3205592	0.23481327	0.62039274	1.3680221	0.064661849	0.5691561	0.9556086	-0.17067664	0.48887566	1.0055284	0.31340734	0.79559457	0.80641076	-0.13686362	0.59382923	0.75422113	0.361074
322	1.284	0.16555015	-0.049749702	-0.0023745276	1.0430246	0.041625668	0.10861453	0.10283539	0.090432003	-0.072977489	0.89392106	0.052828522	0.13950594	0.13839574	0.087905667	0.018243333	0.90900328	0.095304996	0.049913962	0.039454827	0.11824503	-0.024375619	0.82680277	0.031635828	0.088601401	0.39858584	0.39514438	-0.10172055	0.87610667	0.50364682	0.20221866	0.40991105	0.37440269	0.021961126	0.86819126	0.49307293	0.0769969	0.54388237	0.77848723	-0.10479601	0.60906402	0.80371551	0.26553423	0.65906174	0.84537853	-0.057514849	0.67767724	0.87430741	0.17834855	0.50613687	0.92896436	0.070165955	0.7130003	1.3081408	-0.091607167	0.67475358	1.3213823	0.23536165	0.62706564	1.3688179	0.065331127	0.57516728	0.95713219	-0.17019472	0.49579819	1.005838	0.31364519	0.80004764	0.80555832	-0.13664782	0.60200397	0.75485975	0.36126638
323	1.288	0.16726825	-0.047652947	-0.003092119	1.0433776	0.041370999	0.10859187	0.1085051	0.09508017	-0.073269389	0.89416871	0.052785194	0.13933047	0.14447651	0.091485886	0.017800047	0.90949253	0.095163863	0.049734042	0.046282784	0.12454092	-0.024344478	0.82698132	0.031702069	0.0884987	0.4093049	0.39438955	-0.10283869	0.88130865	0.50318342	0.20264059	0.42066164	0.37303692	0.020771195	0.87373857	0.49294786	0.077195455	0.55099094	0.77880473	-0.10404504	0.61546958	0.80478725	0.266267	0.66579857	0.84607059	-0.056437084	0.68398643	0.8752981	0.17917795	0.51292402	0.9299368	0.070776744	0.71982886	1.309068	-0.090897312	0.68122712	1.3222699	0.23589365	0.63367916	1.3696967	0.06599641	0.58119236	0.95868233	-0.16973007	0.50279852	1.00619	0.31392523	0.80443105	0.80472141	-0.13647081	0.61018551	0.75555238	0.36143597
324	1.292	0.16900549	-0.045263324	-0.0037841514	1.043614	0.041180345	0.10845096	0.11450258	0.099929194	-0.073424662	0.89437647	0.052734898	0.13920277	0.15076427	0.095261815	0.017526581	0.909928	0.095049034	0.049618193	0.053392349	0.1310641	-0.024252702	0.82707754	0.031754436	0.088441027	0.42028357	0.39364474	-0.10385763	0.88637041	0.50280613	0.20309239	0.43178643	0.37172686	0.019642927	0.8790705	0.49277376	0.07746492	0.55803872	0.77919246	-0.10329495	0.62175397	0.80576892	0.26700019	0.67227789	0.84677071	-0.055567433	0.69018034	0.87625686	0.18006008	0.51941327	0.93097749	0.071393125	0.72655245	1.3100516	-0.090210785	0.68763878	1.3232224	0.2364092	0.6401645	1.3706728	0.066596133	0.58722772	0.96024966	-0.16927059	0.50999217	1.0066029	0.31431194	0.80875407	0.80389284	-0.13632196	0.61835354	0.75629349	0.36157417
325	1.296	0.1707415	-0.04255863	-0.0044662964	1.0437377	0.041044387	0.10824397	0.12083005	0.10496423	-0.07345677	0.89450973	0.05269393	0.13913198	0.15724599	0.099234235	0.017400422	0.91023956	0.094964036	0.049571587	0.060799847	0.13781747	-0.024088764	0.82709144	0.031783337	0.088434929	0.43150001	0.39290817	-0.10474637	0.89124575	0.5024926	0.2035462	0.443168	0.37048116	0.018640897	0.88412174	0.4925784	0.077795576	0.56504587	0.77965356	-0.10260583	0.6279375	0.80666855	0.26773301	0.67854813	0.84752462	-0.054845781	0.6962825	0.87720613	0.18099128	0.52560165	0.93209875	0.072082261	0.73316906	1.3110851	-0.089573953	0.69399004	1.3242362	0.23691043	0.64651277	1.3717312	0.067108897	0.59325243	0.96182743	-0.16879994	0.51738627	1.0070878	0.31481553	0.81303343	0.8030568	-0.13618771	0.6265026	0.75708178	0.36167649
326	1.3	0.17247437	-0.039575608	-0.0051744816	1.0437738	0.040944835	0.10810752	0.12746852	0.11018799	-0.073394058	0.89456484	0.052665568	0.13911074	0.16389867	0.10339996	0.017395254	0.91041773	0.094916238	0.049595991	0.068516183	0.14480234	-0.023838062	0.82704412	0.031785337	0.088462074	0.44292636	0.39215604	-0.10547195	0.89591738	0.50220256	0.20399275	0.45451787	0.36933969	0.017883795	0.88886472	0.49240055	0.078173968	0.57202823	0.7801817	-0.10202824	0.63403328	0.80750151	0.2684606	0.68469755	0.84837643	-0.054184491	0.70231171	0.87816849	0.18196765	0.53162875	0.93329453	0.07282807	0.7396904	1.3121593	-0.089017571	0.7002815	1.3253106	0.23740093	0.65276939	1.3728451	0.06755476	0.59924862	0.96340799	-0.16830489	0.52481827	1.0076332	0.3153568	0.8172797	0.80221192	-0.13606295	0.63464613	0.75792828	0.36174787
327	1.304	0.17421039	-0.036364065	-0.0059372792	1.0437507	0.040865573	0.10811476	0.13438751	0.11560794	-0.073286028	0.89457806	0.052637988	0.13911928	0.17069786	0.10776073	0.017485607	0.91050403	0.094908037	0.049684765	0.076540751	0.15201266	-0.023497352	0.82696287	0.031763518	0.088503381	0.45452277	0.39137149	-0.10601884	0.9003833	0.5019133	0.20442924	0.4658489	0.36838185	0.017309691	0.89330562	0.49227428	0.078590171	0.5789658	0.78076387	-0.10153733	0.64003919	0.80829526	0.26917203	0.69080846	0.84934484	-0.053518665	0.70827249	0.87916926	0.1829755	0.53767347	0.93452542	0.073534512	0.74612648	1.3132718	-0.088550793	0.70650864	1.3264519	0.2378822	0.65896488	1.3740035	0.067973912	0.6052134	0.96498176	-0.16777743	0.5320613	1.0082159	0.31582513	0.82148532	0.80137912	-0.13595678	0.64279937	0.75885062	0.36179715
328	1.308	0.17596989	-0.032884843	-0.0067365947	1.043696	0.040802153	0.108213	0.14155161	0.12122298	-0.073176922	0.89460076	0.052592203	0.13913194	0.177633	0.11232542	0.017637152	0.91055188	0.094939433	0.04982175	0.084865516	0.15943035	-0.02309156	0.82687187	0.031728888	0.088553023	0.46625204	0.39057567	-0.1064159	0.90464283	0.50163095	0.20484694	0.47757059	0.3676763	0.01666518	0.89747551	0.49221395	0.079031248	0.58580942	0.78139092	-0.10104909	0.64594446	0.80908586	0.26985684	0.69694717	0.85042654	-0.05281655	0.7141637	0.88023296	0.18399048	0.5438096	0.93575874	0.074137905	0.75245557	1.3144386	-0.088139669	0.71266233	1.3276684	0.2383537	0.66507901	1.3752249	0.068413228	0.61115068	0.96654471	-0.16721921	0.53902432	1.0088289	0.31618189	0.82562992	0.8005853	-0.13588819	0.65095929	0.75985897	0.36182666
329	1.312	0.17780761	-0.029016611	-0.0074872433	1.0436358	0.040755229	0.10830502	0.14893405	0.12702956	-0.07309845	0.8946722	0.052513974	0.13912092	0.18473454	0.11709722	0.017809398	0.91060108	0.095007354	0.049985548	0.093478473	0.16702203	-0.022674053	0.82678888	0.03169767	0.088612649	0.47810885	0.38982364	-0.10673257	0.90870719	0.50138749	0.20525018	0.48984439	0.3671814	0.015869881	0.90143048	0.49220914	0.079489759	0.59252756	0.78205753	-0.10051021	0.65174014	0.80991072	0.27051207	0.70313487	0.85160388	-0.052081934	0.71999098	0.8813773	0.18498725	0.55000153	0.937004	0.074653325	0.75863148	1.3156838	-0.08773603	0.71873501	1.3289623	0.23881269	0.6710884	1.3765257	0.068896384	0.61706125	0.96810174	-0.16664149	0.54575728	1.0094769	0.31645607	0.8297008	0.79984477	-0.13587124	0.65911345	0.76095241	0.36183341
330	1.316	0.17982555	-0.024680623	-0.0080580616	1.0435883	0.040721822	0.10835161	0.15654325	0.13303172	-0.073092849	0.89480164	0.052401989	0.13906697	0.19206388	0.12207122	0.017971072	0.91067544	0.095101876	0.050155404	0.10236497	0.17474992	-0.022304861	0.82672408	0.031681163	0.088676828	0.49011517	0.38916651	-0.10703217	0.91260822	0.50121308	0.20567341	0.50226708	0.36678303	0.015149738	0.9052394	0.49222921	0.079969367	0.59912638	0.78275498	-0.099931326	0.65741802	0.81080551	0.27114005	0.70931236	0.85285324	-0.051343962	0.72576589	0.8826101	0.18594848	0.55617702	0.93829826	0.075123968	0.76463123	1.3170163	-0.087328009	0.724725	1.330327	0.23925437	0.67700328	1.3778964	0.069407627	0.62294173	0.96966029	-0.16605361	0.55233225	1.0101624	0.31668046	0.83370315	0.79916245	-0.1359108	0.66726789	0.76213127	0.36182012
331	1.32	0.18215937	-0.019881481	-0.0083187189	1.043559	0.040695881	0.10837886	0.16442147	0.13922153	-0.073201465	0.89496347	0.0522687	0.13897675	0.19965567	0.12725035	0.018103636	0.91078762	0.095209739	0.05031729	0.11150876	0.18258476	-0.022042564	0.8266798	0.031678311	0.08872877	0.50226686	0.38863244	-0.10732188	0.91637781	0.50108995	0.20615552	0.51442427	0.36644459	0.014727596	0.90895969	0.49223282	0.080467499	0.60563536	0.78347053	-0.099350557	0.66296434	0.81180393	0.27174024	0.71538218	0.85415505	-0.050635675	0.7314961	0.8839304	0.18686315	0.56225535	0.93967816	0.075574247	0.77047086	1.3184261	-0.086934419	0.73063743	1.3317542	0.23967659	0.68282948	1.3793295	0.06992341	0.62878633	0.97122515	-0.16545532	0.55883209	1.0108972	0.31689347	0.837655	0.79854724	-0.13601506	0.67545721	0.76341095	0.361802
332	1.324	0.18492836	-0.014621595	-0.0081824432	1.0435449	0.040672495	0.10841876	0.17259174	0.14554208	-0.073417033	0.89511363	0.052135571	0.13888337	0.20749301	0.13265081	0.018194244	0.91094	0.095321036	0.050467082	0.12089332	0.19050389	-0.021955278	0.82665211	0.031682032	0.088753057	0.51449776	0.38823952	-0.10755565	0.92001603	0.50095618	0.20669336	0.52631372	0.36620593	0.014631393	0.91262715	0.49218489	0.080967343	0.61209118	0.7841955	-0.098795444	0.66836727	0.81293688	0.27230737	0.72130491	0.85550208	-0.049973663	0.73718082	0.8853315	0.18772005	0.56815565	0.94116507	0.076003732	0.77617877	1.3198994	-0.086567747	0.73648092	1.3332429	0.24008175	0.68857511	1.3808143	0.070434443	0.63458825	0.97279953	-0.16484267	0.56535622	1.0117062	0.31714722	0.84157482	0.79801093	-0.13619229	0.68371518	0.76481479	0.36179643
